<?xml version="1.0" standalone="no"?>
<!DOCTYPE svg PUBLIC "-//W3C//DTD SVG 20010904//EN"
 "http://www.w3.org/TR/2001/REC-SVG-20010904/DTD/svg10.dtd">
<svg version="1.0" xmlns="http://www.w3.org/2000/svg"
 width="423.000000pt" height="423.000000pt" viewBox="0 0 423.000000 423.000000"
 preserveAspectRatio="xMidYMid meet">
<metadata>
Created by potrace 1.11, written by Peter Selinger 2001-2013
</metadata>
<g transform="translate(0.000000,423.000000) scale(0.100000,-0.100000)"
fill="#000000" stroke="none">
<path d="M0 2823 l0 -1408 65 0 c36 1 65 -2 65 -6 0 -10 -40 -19 -87 -19 l-43
0 0 -695 0 -695 2116 0 2115 0 -2 103 c-2 100 -11 133 -32 120 -6 -4 -7 -1 -2
7 6 10 4 12 -11 6 -22 -9 -23 -9 -46 -7 -11 1 -15 6 -12 16 4 8 1 15 -4 15
-16 0 -24 -18 -12 -25 6 -4 7 -11 4 -17 -5 -7 -11 -6 -18 4 -12 15 -51 33 -42
19 3 -5 -1 -11 -9 -15 -8 -3 -14 0 -12 6 4 21 -102 61 -124 47 -11 -7 -10 -9
4 -9 9 0 17 -4 17 -8 0 -5 15 -7 33 -6 34 3 66 -10 54 -22 -3 -4 -13 -1 -22 6
-12 10 -15 10 -15 -4 0 -9 5 -16 12 -16 6 0 8 -3 4 -7 -4 -4 -16 3 -25 16
l-19 24 3 -26 c2 -19 -1 -24 -12 -20 -12 5 -12 7 -2 14 10 6 6 11 -12 18 -32
12 -45 39 -23 48 13 5 13 7 2 14 -10 7 -9 9 5 9 9 0 17 -5 17 -11 0 -5 4 -7
10 -4 6 3 10 2 10 -3 0 -6 16 -12 35 -14 22 -2 34 0 31 6 -2 6 -9 10 -15 9 -6
-2 -11 2 -11 7 0 6 9 10 21 10 11 0 18 -4 14 -9 -7 -13 11 -23 46 -27 19 -2
28 1 26 9 -1 7 6 11 17 9 10 -2 15 1 12 6 -7 12 72 -2 86 -16 6 -6 6 -12 -1
-16 -6 -4 -11 -2 -11 4 0 7 -6 5 -15 -4 -9 -8 -23 -13 -33 -10 -16 5 -15 5 1
-6 9 -6 22 -8 28 -5 5 4 17 1 25 -6 8 -6 17 -9 21 -5 3 3 1 6 -7 6 -8 0 -9 4
-3 13 5 6 10 26 11 42 l2 30 -113 3 c-61 1 -114 7 -115 12 -2 6 -8 8 -13 5
-16 -10 -208 -6 -229 5 -14 8 -20 8 -20 0 0 -6 -4 -9 -9 -6 -14 9 -145 11
-159 2 -7 -4 -12 -2 -12 5 0 8 -5 7 -17 -2 -13 -11 -17 -11 -20 -1 -3 7 -23
12 -53 12 -27 0 -52 5 -55 11 -5 6 -12 4 -20 -7 -13 -18 -65 -26 -65 -11 0 5
11 7 24 5 16 -3 27 0 30 9 4 11 -7 12 -54 9 -51 -4 -60 -2 -60 12 0 11 3 13
11 5 6 -6 20 -8 32 -5 21 6 21 6 -3 14 -20 6 -19 7 10 4 19 -2 43 1 54 6 22
12 109 15 535 16 286 2 322 4 311 17 -8 10 -9 15 -2 15 7 0 11 36 10 104 l0
105 -27 3 -26 4 28 14 28 13 -2 124 c0 68 -5 123 -10 123 -5 0 -9 -4 -9 -10 0
-5 -12 -10 -27 -9 l-28 1 25 8 c14 4 19 8 13 9 -7 1 -13 5 -13 10 0 4 11 6 24
4 l24 -5 1 106 1 105 -60 -3 c-33 -2 -60 0 -60 5 0 5 27 9 60 9 l60 0 -1 105
c0 58 -5 105 -10 105 -5 0 -9 5 -9 11 0 5 4 7 10 4 6 -4 10 481 10 1409 l0
1416 -2115 0 -2115 0 0 -1407z m2490 1337 c0 -5 -4 -10 -10 -10 -5 0 -10 5
-10 10 0 6 5 10 10 10 6 0 10 -4 10 -10z m1260 0 c0 -5 -4 -10 -10 -10 -5 0
-10 5 -10 10 0 6 5 10 10 10 6 0 10 -4 10 -10z m-2590 -100 c0 -5 -2 -10 -4
-10 -3 0 -8 5 -11 10 -3 6 -1 10 4 10 6 0 11 -4 11 -10z m1015 -79 c7 -12 -12
-24 -25 -16 -11 7 -4 25 10 25 5 0 11 -4 15 -9z m469 -72 c-3 -5 -10 -7 -15
-3 -5 3 -7 10 -3 15 3 5 10 7 15 3 5 -3 7 -10 3 -15z m-2594 -43 c0 -3 -4 -8
-10 -11 -5 -3 -10 -1 -10 4 0 6 5 11 10 11 6 0 10 -2 10 -4z m1570 -26 c0 -5
-4 -10 -10 -10 -5 0 -10 5 -10 10 0 6 5 10 10 10 6 0 10 -4 10 -10z m2560
-164 c0 -3 -4 -8 -10 -11 -5 -3 -10 -1 -10 4 0 6 5 11 10 11 6 0 10 -2 10 -4z
m-719 -49 c-13 -13 -26 -3 -16 12 3 6 11 8 17 5 6 -4 6 -10 -1 -17z m-3096
-17 c3 -5 1 -10 -4 -10 -6 0 -11 5 -11 10 0 6 2 10 4 10 3 0 8 -4 11 -10z
m135 -220 c0 -5 -5 -10 -11 -10 -5 0 -7 5 -4 10 3 6 8 10 11 10 2 0 4 -4 4
-10z m480 -10 c0 -5 -4 -10 -10 -10 -5 0 -10 5 -10 10 0 6 5 10 10 10 6 0 10
-4 10 -10z m270 -280 c0 -5 -5 -10 -11 -10 -5 0 -7 5 -4 10 3 6 8 10 11 10 2
0 4 -4 4 -10z m1120 -40 c0 -5 -5 -10 -11 -10 -5 0 -7 5 -4 10 3 6 8 10 11 10
2 0 4 -4 4 -10z m645 -330 c3 -5 1 -10 -4 -10 -6 0 -11 5 -11 10 0 6 2 10 4
10 3 0 8 -4 11 -10z m-2705 -55 c0 -45 298 -349 418 -425 34 -22 90 -49 124
-61 77 -26 118 -46 118 -60 0 -6 5 -7 10 -4 5 3 10 1 10 -5 0 -6 -8 -10 -17
-8 -12 2 -18 -4 -19 -20 -1 -12 3 -25 8 -28 4 -3 6 -9 3 -14 -3 -4 11 -17 30
-29 28 -16 47 -20 92 -16 32 2 62 0 70 -6 9 -8 19 -6 35 5 12 9 35 16 50 16
25 0 27 2 16 20 -9 14 -14 16 -20 7 -5 -8 -8 -7 -8 6 0 20 20 23 38 5 9 -9 12
-9 12 2 0 7 2 11 5 8 3 -3 1 -17 -5 -32 -9 -24 -6 -30 30 -62 22 -20 40 -42
40 -50 0 -7 7 -29 16 -48 l17 -34 46 28 c34 21 65 56 117 132 56 81 76 103 95
104 13 0 35 5 49 11 25 10 73 1 95 -18 14 -14 25 -11 25 6 0 9 10 26 23 38 34
33 69 95 62 109 -4 7 3 1 16 -15 15 -17 31 -26 44 -23 70 13 111 19 120 17 16
-4 138 21 165 34 133 64 239 149 376 302 25 29 39 34 104 43 71 11 130 23 175
37 18 6 18 5 6 -10 -7 -9 -10 -17 -5 -18 16 -1 -91 -37 -113 -38 -12 -1 -25
-6 -29 -12 -5 -8 1 -10 20 -7 16 3 26 1 26 -6 0 -7 -12 -11 -27 -10 -84 3 -85
4 -79 20 12 32 -57 4 -97 -40 -21 -22 -48 -52 -61 -66 -13 -14 -48 -47 -79
-73 -32 -27 -57 -52 -57 -57 0 -5 14 -25 31 -44 34 -40 36 -45 17 -58 -10 -8
-10 -9 2 -5 8 2 14 10 12 16 -1 6 8 11 20 11 23 -1 23 -1 3 -16 -32 -24 -49
-32 -68 -29 -9 2 -15 -1 -11 -6 3 -5 10 -7 15 -4 5 4 9 1 9 -4 0 -6 -6 -11
-14 -11 -7 0 -19 -6 -25 -14 -6 -8 -21 -16 -32 -19 -18 -5 -20 -2 -14 21 5 22
4 25 -7 14 -7 -7 -13 -22 -13 -33 0 -14 -16 -29 -55 -51 -68 -37 -97 -63 -104
-93 -3 -13 -19 -115 -36 -227 -34 -232 -48 -285 -76 -280 -11 2 -59 7 -109 11
-49 4 -77 9 -62 9 16 1 25 6 22 12 -3 6 -1 10 5 10 6 0 9 4 6 8 -4 8 -90 7
-131 -1 -21 -4 -65 11 -65 23 0 4 -21 15 -47 25 -27 10 -51 23 -55 29 -5 8 -8
7 -8 -1 0 -7 -5 -13 -11 -13 -5 0 -8 3 -6 8 3 4 -6 8 -20 9 -14 0 -30 7 -35
15 -8 10 -9 10 -6 -2 3 -7 31 -23 64 -35 32 -11 64 -25 69 -32 6 -7 21 -17 35
-23 24 -10 24 -10 -5 -4 -16 3 -33 10 -36 15 -3 6 -53 26 -110 46 -57 19 -114
45 -127 56 -19 18 -26 19 -42 9 -31 -19 -38 -14 -10 8 22 17 23 20 7 25 -9 4
-14 12 -10 19 3 6 3 8 -2 4 -10 -9 -37 11 -30 22 3 5 -2 7 -10 6 -22 -3 -95
-77 -95 -96 0 -8 -7 -25 -15 -37 -14 -20 -13 -21 8 -16 16 4 14 0 -11 -16 -18
-12 -38 -18 -44 -15 -6 4 -8 3 -5 -3 4 -6 1 -13 -7 -16 -8 -3 -21 -28 -31 -56
-16 -50 -16 -50 15 -146 20 -60 49 -120 78 -163 25 -37 65 -101 89 -142 27
-47 56 -84 80 -101 28 -19 37 -32 35 -48 -1 -14 11 -39 29 -62 30 -38 31 -66
3 -55 -8 3 -13 1 -11 -5 3 -12 -38 -36 -78 -45 -16 -3 -24 -9 -17 -11 6 -3 10
-8 7 -13 -8 -12 -58 16 -87 49 -29 32 -53 33 -176 5 -35 -8 -73 -14 -86 -14
-32 0 -75 22 -82 43 -4 14 -12 16 -40 11 -22 -4 -34 -2 -34 5 0 6 14 11 31 11
34 0 36 23 3 28 -10 2 -24 10 -31 18 -7 10 -13 11 -17 5 -4 -6 -13 -4 -24 7
-20 19 -6 38 15 20 26 -21 12 9 -16 36 -20 20 -30 24 -33 14 -10 -27 -61 96
-66 158 -4 51 -8 63 -24 68 -11 2 -17 9 -13 15 3 6 1 11 -4 11 -6 0 -11 -7
-11 -15 0 -8 -4 -15 -9 -15 -5 0 -16 -3 -24 -6 -12 -4 -14 0 -10 15 3 11 12
22 22 24 9 3 -27 6 -79 7 -52 2 -85 5 -72 7 12 2 20 8 18 11 -2 4 14 6 36 4
28 -3 39 -1 34 7 -5 8 0 8 18 1 22 -8 26 -7 26 8 0 11 3 13 8 6 4 -6 22 -13
40 -16 l32 -5 2 56 c1 31 2 66 2 78 0 12 3 21 7 20 4 -1 34 52 67 118 51 101
62 133 71 204 12 89 15 282 5 316 -3 11 -50 49 -107 85 -121 78 -246 200 -321
314 -30 44 -77 105 -105 135 -47 51 -62 81 -25 50 15 -12 15 -10 0 25 -9 21
-16 47 -16 58 0 17 3 18 15 8 8 -7 15 -18 15 -25z m3000 -145 c0 -5 -4 -10
-10 -10 -5 0 -10 5 -10 10 0 6 5 10 10 10 6 0 10 -4 10 -10z m-1550 -42 c0
-10 -51 -10 -68 0 -7 5 4 8 28 8 22 0 40 -4 40 -8z m100 -20 c26 -20 49 -55
49 -73 0 -5 -5 0 -12 11 -12 22 -56 61 -92 83 -18 11 -18 11 5 5 14 -4 36 -16
50 -26z m5 -48 c3 -5 1 -10 -4 -10 -6 0 -11 5 -11 10 0 6 2 10 4 10 3 0 8 -4
11 -10z m-592 -26 c9 -3 22 -15 28 -27 l12 -22 -24 20 -24 20 18 -21 c9 -11
17 -27 17 -35 0 -12 2 -11 10 1 8 13 10 13 10 -2 0 -9 -4 -19 -9 -23 -14 -8
-9 -45 6 -45 19 0 28 -30 12 -40 -10 -7 -4 -17 25 -44 20 -20 44 -36 51 -36 8
0 17 -5 21 -11 5 -8 -1 -10 -20 -7 -25 5 -27 3 -21 -21 5 -22 0 -29 -24 -44
-45 -26 -60 -15 -58 45 2 43 -1 52 -16 54 -11 1 -21 5 -25 8 -11 12 5 15 41 6
28 -6 37 -5 34 3 -2 7 -11 11 -21 9 -9 -2 -16 4 -16 13 0 8 -11 47 -25 86 -13
38 -21 77 -18 87 3 9 3 14 -2 10 -4 -4 -14 -3 -21 3 -7 6 -37 12 -66 14 -80 5
-87 7 -43 14 37 6 104 -1 148 -15z m408 14 c1 -7 1 -20 0 -30 -1 -9 10 -28 24
-42 14 -14 25 -34 25 -45 0 -11 2 -25 5 -33 3 -7 -2 -22 -10 -33 -16 -19 -16
-19 -5 3 12 25 5 29 -15 8 -8 -7 -11 -17 -7 -20 3 -4 -5 -3 -18 2 -14 5 -25
14 -25 20 0 6 -4 14 -9 19 -5 4 -6 3 -3 -3 4 -7 -2 -14 -13 -17 -16 -4 -20 0
-19 16 0 12 4 31 8 41 7 18 8 18 14 2 6 -14 10 -15 29 -5 21 11 21 12 2 26
-10 8 -28 12 -39 9 -19 -5 -21 -1 -17 32 5 56 9 62 42 62 17 0 31 -6 31 -12z
m-444 -60 c19 -26 34 -98 24 -116 -9 -15 -10 -13 -11 9 0 42 -21 93 -31 77 -6
-9 -9 -5 -9 15 0 29 11 35 27 15z m583 -32 c0 -29 -24 -51 -43 -39 -19 11 -4
53 18 53 10 0 13 5 9 12 -4 7 -3 8 4 4 7 -4 12 -18 12 -30z m-493 -38 c-3 -8
-6 -5 -6 6 -1 11 2 17 5 13 3 -3 4 -12 1 -19z m-98 -77 c6 -18 7 -31 4 -27
-11 11 -33 80 -32 101 1 13 4 10 9 -10 5 -16 13 -45 19 -64z m-61 19 c0 -9 -3
-7 -8 5 -5 11 -8 29 -8 40 0 16 2 15 8 -5 4 -14 8 -32 8 -40z m677 19 c4 -6
13 -8 21 -5 22 8 16 -16 -11 -49 l-24 -30 -1 25 c0 14 -3 35 -6 48 -6 23 9 31
21 11z m-165 -53 c0 -2 -7 -6 -15 -10 -8 -3 -15 -1 -15 4 0 6 7 10 15 10 8 0
15 -2 15 -4z m-391 -56 c9 0 9 -3 -1 -14 -9 -10 -14 -11 -17 -3 -2 7 -11 21
-20 32 -16 20 -16 20 5 3 11 -10 26 -18 33 -18z m388 8 c-3 -8 -6 -5 -6 6 -1
11 2 17 5 13 3 -3 4 -12 1 -19z m-510 -60 c-3 -8 -6 -5 -6 6 -1 11 2 17 5 13
3 -3 4 -12 1 -19z m-67 2 c0 -5 -2 -10 -4 -10 -3 0 -8 5 -11 10 -3 6 -1 10 4
10 6 0 11 -4 11 -10z m107 -22 c-3 -8 -6 -5 -6 6 -1 11 2 17 5 13 3 -3 4 -12
1 -19z m113 -413 c0 -6 -56 -35 -67 -35 -4 1 8 9 27 20 39 22 40 22 40 15z
m1870 -214 c0 -4 -10 -7 -22 -5 -13 1 -50 3 -83 4 -50 2 -54 4 -25 9 43 7 130
2 130 -8z m-786 1 c2 -4 -5 -9 -17 -9 -17 -2 -19 0 -7 7 18 12 18 12 24 2z
m169 -5 c3 -8 -1 -14 -8 -14 -7 0 -11 6 -8 14 3 7 6 13 8 13 2 0 5 -6 8 -13z
m642 3 c3 -5 1 -10 -4 -10 -6 0 -11 5 -11 10 0 6 2 10 4 10 3 0 8 -4 11 -10z
m81 -2 c4 -6 3 -8 -4 -4 -6 3 -18 -1 -26 -10 -13 -12 -16 -13 -16 -1 0 27 32
38 46 15z m154 -2 c0 -8 -15 -13 -35 -14 -21 -1 -33 3 -30 8 3 6 1 10 -4 10
-6 0 -11 -4 -11 -9 0 -5 -8 -12 -17 -15 -10 -4 -14 -4 -10 0 4 4 3 12 -2 18
-7 8 8 12 50 13 41 0 59 -3 59 -11z m99 1 c12 -9 13 -9 7 1 -8 14 26 16 58 3
19 -7 19 -8 -2 -13 -12 -4 -20 -2 -16 3 3 5 -2 9 -10 9 -9 0 -16 -4 -16 -10 0
-5 -25 -10 -55 -10 -40 0 -55 4 -55 14 0 17 68 19 89 3z m-2024 -7 c3 -5 1
-10 -4 -10 -6 0 -11 5 -11 10 0 6 2 10 4 10 3 0 8 -4 11 -10z m688 3 c-7 -2
-19 -2 -25 0 -7 3 -2 5 12 5 14 0 19 -2 13 -5z m47 -9 c0 -2 -7 -4 -15 -4 -8
0 -15 4 -15 10 0 5 7 7 15 4 8 -4 15 -8 15 -10z m225 -2 c-3 -3 -11 0 -18 7
-9 10 -8 11 6 5 10 -3 15 -9 12 -12z m290 8 c-3 -5 -1 -10 6 -10 7 0 10 -2 7
-5 -3 -3 -13 -2 -22 1 -14 5 -15 9 -4 15 17 11 20 11 13 -1z m908 3 c-7 -2
-21 -2 -30 0 -10 3 -4 5 12 5 17 0 24 -2 18 -5z m-3493 -7 c0 -2 -11 -6 -25
-8 -13 -3 -22 -1 -19 3 5 9 44 13 44 5z m189 -23 c-1 -17 -3 -21 -6 -10 -2 9
-10 17 -16 17 -7 0 -6 4 3 10 20 13 20 13 19 -17z m216 17 c3 -5 1 -10 -4 -10
-6 0 -11 5 -11 10 0 6 2 10 4 10 3 0 8 -4 11 -10z m3165 4 c0 -2 -10 -14 -22
-26 -16 -16 -20 -17 -15 -5 4 11 1 17 -8 17 -29 0 -14 17 15 18 17 0 30 -1 30
-4z m-865 -16 c4 4 6 1 3 -7 -7 -23 -25 -24 -31 -1 -4 16 -2 19 7 11 7 -6 16
-7 21 -3z m286 3 c-12 -8 -51 -4 -51 5 0 2 15 4 33 4 22 0 28 -3 18 -9z m52
-12 c-4 -14 -8 -17 -13 -9 -4 7 -13 10 -19 6 -7 -5 -9 -1 -5 8 3 9 14 16 24
16 13 0 17 -5 13 -21z m937 9 c0 -4 7 -5 15 -2 8 4 15 2 15 -4 0 -11 -59 -22
-65 -12 -2 4 -18 7 -35 8 -26 1 -29 -2 -20 -13 10 -12 6 -13 -22 -5 -18 6 -34
10 -35 10 -2 0 -3 5 -3 12 0 9 3 9 12 0 14 -14 32 -16 23 -3 -3 5 3 11 12 13
33 6 103 3 103 -4z m-3816 -19 c-8 -14 -21 -11 -21 5 0 8 6 12 14 9 7 -3 10
-9 7 -14z m2386 17 c0 -2 -7 -6 -15 -10 -8 -3 -15 -1 -15 4 0 6 7 10 15 10 8
0 15 -2 15 -4z m1131 -9 c-6 -8 -7 -17 -3 -22 4 -4 -2 -3 -13 3 -11 5 -34 8
-50 5 -40 -7 -25 7 17 17 53 13 62 12 49 -3z m123 5 c31 -3 7 -17 -36 -21 -5
-1 -8 -9 -8 -18 0 -14 -4 -13 -21 6 -12 12 -27 20 -35 17 -8 -3 -11 0 -8 8 4
12 35 14 108 8z m-3574 -12 c0 -5 -5 -10 -11 -10 -5 0 -7 5 -4 10 3 6 8 10 11
10 2 0 4 -4 4 -10z m750 -5 c0 -8 -4 -15 -10 -15 -5 0 -10 7 -10 15 0 8 5 15
10 15 6 0 10 -7 10 -15z m88 -10 c-3 -3 -9 2 -12 12 -6 14 -5 15 5 6 7 -7 10
-15 7 -18z m49 19 c-3 -3 -12 -4 -19 -1 -8 3 -5 6 6 6 11 1 17 -2 13 -5z
m1953 -10 c0 -8 -4 -12 -10 -9 -5 3 -10 10 -10 16 0 5 5 9 10 9 6 0 10 -7 10
-16z m410 12 c0 -3 -4 -8 -10 -11 -5 -3 -10 -1 -10 4 0 6 5 11 10 11 6 0 10
-2 10 -4z m-3498 -51 c5 -6 8 -4 8 5 0 12 2 13 9 1 5 -7 14 -10 20 -7 6 4 11
2 11 -5 0 -6 -8 -9 -20 -6 -11 3 -20 0 -20 -6 0 -7 -5 -4 -11 6 -6 9 -15 14
-21 11 -7 -4 -8 -2 -4 4 9 16 -7 15 -22 0 -9 -9 -12 -9 -12 0 0 7 5 12 11 12
6 0 8 7 5 17 -6 14 -3 14 16 -3 13 -10 26 -23 30 -29z m141 38 c-7 -2 -19 -2
-25 0 -7 3 -2 5 12 5 14 0 19 -2 13 -5z m2187 -3 c0 -5 -2 -10 -4 -10 -3 0 -8
5 -11 10 -3 6 -1 10 4 10 6 0 11 -4 11 -10z m131 0 c5 0 9 -4 9 -9 0 -4 -11
-6 -25 -3 -14 2 -25 9 -25 14 0 6 7 7 16 4 9 -3 20 -6 25 -6z m872 3 c-7 -2
-19 -2 -25 0 -7 3 -2 5 12 5 14 0 19 -2 13 -5z m211 -22 c-2 -3 -12 3 -22 13
-16 17 -16 18 5 5 12 -7 20 -15 17 -18z m40 14 c-12 -10 -14 -14 -4 -12 8 2
12 2 7 0 -4 -3 -4 -10 -1 -15 4 -7 2 -8 -4 -4 -7 4 -12 3 -12 -3 0 -6 -7 -8
-15 -5 -13 5 -13 8 0 21 8 8 15 19 15 24 0 5 8 9 17 9 15 0 14 -2 -3 -15z
m-2299 -17 c-9 -6 -19 -7 -22 -4 -4 3 -1 6 6 6 7 0 9 4 6 10 -4 6 1 7 11 3 15
-6 15 -7 -1 -15z m1082 16 c-3 -3 -12 -4 -19 -1 -8 3 -5 6 6 6 11 1 17 -2 13
-5z m373 -4 c0 -5 -4 -10 -10 -10 -5 0 -10 5 -10 10 0 6 5 10 10 10 6 0 10 -4
10 -10z m-2660 -28 c0 -15 -2 -15 -10 -2 -13 20 -13 33 0 25 6 -3 10 -14 10
-23z m3555 18 c3 -5 1 -10 -4 -10 -6 0 -11 5 -11 10 0 6 2 10 4 10 3 0 8 -4
11 -10z m315 -5 c0 -8 -4 -15 -8 -15 -5 0 -9 7 -9 15 0 8 4 15 9 15 4 0 8 -7
8 -15z m-3823 -1 c-3 -3 -12 -4 -19 -1 -8 3 -5 6 6 6 11 1 17 -2 13 -5z m323
-4 c0 -5 -5 -10 -11 -10 -5 0 -7 5 -4 10 3 6 8 10 11 10 2 0 4 -4 4 -10z
m1660 3 c0 -5 -4 -14 -9 -22 -7 -10 -12 -11 -27 -1 -17 10 -17 11 -1 6 11 -3
20 0 23 9 6 16 14 20 14 8z m25 -2 c3 -5 2 -12 -3 -15 -5 -3 -9 1 -9 9 0 17 3
19 12 6z m70 -1 c-3 -5 3 -11 12 -13 14 -4 14 -5 2 -6 -8 0 -23 5 -33 12 -16
12 -16 13 4 14 11 1 18 -2 15 -7z m-195 -9 c0 -5 10 -7 23 -4 19 4 20 3 4 -7
-9 -6 -22 -8 -28 -5 -5 4 -16 1 -24 -5 -11 -9 -15 -9 -15 -1 0 6 -7 11 -16 11
-8 0 -12 -4 -9 -10 10 -16 -5 -12 -23 6 -15 15 -13 16 26 12 23 -2 42 0 42 4
0 5 5 8 10 8 6 0 10 -4 10 -9z m1010 -1 c0 -5 -5 -10 -11 -10 -5 0 -7 5 -4 10
3 6 8 10 11 10 2 0 4 -4 4 -10z m-3032 -30 c12 -19 11 -20 -8 -8 -20 13 -27
28 -12 28 4 0 13 -9 20 -20z m3062 4 c0 -8 -5 -12 -10 -9 -6 4 -8 11 -5 16 9
14 15 11 15 -7z m-2895 -4 c3 -5 -1 -10 -9 -10 -8 0 -18 5 -21 10 -3 6 1 10 9
10 8 0 18 -4 21 -10z m2215 -10 c-28 -8 -35 -6 -26 8 3 6 16 7 29 4 22 -6 22
-6 -3 -12z m-2353 -12 c-3 -8 -6 -5 -6 6 -1 11 2 17 5 13 3 -3 4 -12 1 -19z
m43 12 c0 -5 -4 -10 -10 -10 -5 0 -10 5 -10 10 0 6 5 10 10 10 6 0 10 -4 10
-10z m2464 -5 c-7 -18 -24 -20 -24 -3 0 9 -3 9 -12 0 -7 -7 -17 -12 -22 -12
-18 1 27 30 46 30 11 0 15 -5 12 -15z m1276 5 c0 -5 -4 -10 -10 -10 -5 0 -10
5 -10 10 0 6 5 10 10 10 6 0 10 -4 10 -10z m210 6 c0 -2 -9 -6 -20 -9 -11 -3
-20 -1 -20 4 0 5 9 9 20 9 11 0 20 -2 20 -4z m-1800 -16 c0 -5 -5 -10 -11 -10
-5 0 -7 5 -4 10 3 6 8 10 11 10 2 0 4 -4 4 -10z m1645 0 c3 -5 18 -10 33 -10
16 0 22 -4 17 -9 -13 -13 -69 1 -72 17 -3 14 13 16 22 2z m-2761 -29 c-2 -3
-12 3 -22 13 -16 17 -16 18 5 5 12 -7 20 -15 17 -18z m-974 9 c0 -5 -2 -10 -4
-10 -3 0 -8 5 -11 10 -3 6 -1 10 4 10 6 0 11 -4 11 -10z m155 0 c3 -5 -1 -10
-10 -10 -9 0 -13 5 -10 10 3 6 8 10 10 10 2 0 7 -4 10 -10z m3680 0 c3 -5 1
-10 -4 -10 -6 0 -11 5 -11 10 0 6 2 10 4 10 3 0 8 -4 11 -10z m-3570 -10 c3
-5 1 -10 -4 -10 -6 0 -11 5 -11 10 0 6 2 10 4 10 3 0 8 -4 11 -10z m2532 4
c-3 -3 -12 -4 -19 -1 -8 3 -5 6 6 6 11 1 17 -2 13 -5z m50 0 c-3 -3 -12 -4
-19 -1 -8 3 -5 6 6 6 11 1 17 -2 13 -5z m380 -16 c-3 -8 -6 -5 -6 6 -1 11 2
17 5 13 3 -3 4 -12 1 -19z m163 12 c0 -5 -2 -10 -4 -10 -3 0 -8 5 -11 10 -3 6
-1 10 4 10 6 0 11 -4 11 -10z m295 0 c3 -5 1 -10 -4 -10 -6 0 -11 5 -11 10 0
6 2 10 4 10 3 0 8 -4 11 -10z m-3590 -10 c3 -5 1 -10 -4 -10 -6 0 -11 5 -11
10 0 6 2 10 4 10 3 0 8 -4 11 -10z m1699 -6 c3 -8 2 -12 -4 -9 -6 3 -10 10
-10 16 0 14 7 11 14 -7z m31 6 c3 -5 1 -10 -4 -10 -6 0 -11 5 -11 10 0 6 2 10
4 10 3 0 8 -4 11 -10z m1440 0 c3 -6 -1 -7 -9 -4 -18 7 -21 14 -7 14 6 0 13
-4 16 -10z m271 -15 c3 -7 15 -11 27 -8 18 4 19 3 7 -6 -13 -9 -13 -11 3 -11
16 0 25 -19 10 -21 -5 0 -23 -2 -40 -3 -28 -3 -33 0 -34 18 0 14 -2 16 -6 6
-6 -16 -32 -40 -44 -40 -14 0 3 39 20 43 11 3 10 5 -6 6 -15 1 -24 -7 -32 -29
-5 -16 -16 -30 -23 -30 -10 0 -9 3 2 10 11 7 9 11 -13 19 -15 6 -27 15 -27 21
0 13 17 13 25 0 3 -5 13 -10 21 -10 8 0 14 5 14 10 0 6 -9 10 -20 10 -22 0
-23 2 -15 22 7 18 124 12 131 -7z m74 15 c-13 -8 -12 -11 5 -24 20 -15 20 -15
-2 -9 -31 7 -30 43 1 43 6 0 4 -5 -4 -10z m-3795 -10 c17 -7 15 -9 -12 -9 -18
-1 -33 4 -33 9 0 12 17 12 45 0z m1245 -1 c0 -5 4 -8 9 -5 5 3 14 -1 21 -9 7
-8 10 -15 7 -15 -3 0 -14 -3 -24 -6 -15 -5 -15 -4 -3 5 12 9 11 11 -7 11 -14
0 -23 6 -23 15 0 8 5 15 10 15 6 0 10 -5 10 -11z m1400 -10 c0 -11 -4 -18 -10
-14 -5 3 -7 12 -3 20 7 21 13 19 13 -6z m338 0 c12 -9 20 -18 17 -20 -9 -10
-75 4 -75 15 0 28 22 30 58 5z m-2803 3 c-3 -3 0 -10 5 -17 7 -9 1 -12 -23
-11 -24 1 -33 6 -34 18 -1 12 6 16 28 16 16 -1 27 -3 24 -6z m2060 -2 c3 -5
-1 -10 -10 -10 -9 0 -13 5 -10 10 3 6 8 10 10 10 2 0 7 -4 10 -10z m117 -12
c-7 -7 -12 -8 -12 -2 0 14 12 26 19 19 2 -3 -1 -11 -7 -17z m753 12 c-3 -5 3
-13 12 -19 16 -9 14 -10 -9 -11 -16 0 -28 5 -28 10 0 6 -7 10 -15 10 -29 0
-15 17 15 18 17 0 28 -3 25 -8z m938 3 c-7 -2 -19 -2 -25 0 -7 3 -2 5 12 5 14
0 19 -2 13 -5z m-2676 -20 c7 -18 -6 -31 -16 -15 -4 6 -19 13 -33 14 -37 3
-25 17 13 16 17 -1 33 -7 36 -15z m707 9 c2 -4 -11 -6 -30 -4 -19 2 -34 6 -34
8 0 8 59 4 64 -4z m1766 -12 c0 -11 -4 -20 -10 -20 -5 0 -10 9 -10 20 0 11 5
20 10 20 6 0 10 -9 10 -20z m-3435 -6 c76 -2 83 -4 60 -14 -11 -4 -29 -7 -40
-6 -11 2 -14 1 -7 -1 6 -3 12 -12 11 -21 0 -11 -2 -12 -6 -4 -2 6 -16 12 -29
12 -13 0 -24 5 -24 11 0 7 -14 10 -35 7 -19 -2 -35 -3 -35 -2 0 21 15 34 34
27 11 -4 44 -8 71 -9z m2770 6 c3 -5 1 -10 -4 -10 -6 0 -11 5 -11 10 0 6 2 10
4 10 3 0 8 -4 11 -10z m-2891 -21 c-8 -14 -24 -10 -24 6 0 9 6 12 15 9 8 -4
12 -10 9 -15z m921 11 c3 -5 1 -10 -4 -10 -6 0 -11 5 -11 10 0 6 2 10 4 10 3
0 8 -4 11 -10z m2672 -6 c-3 -3 -12 -4 -19 -1 -8 3 -5 6 6 6 11 1 17 -2 13 -5z
m-1937 -8 c0 -2 -7 -7 -16 -10 -8 -3 -12 -2 -9 4 6 10 25 14 25 6z m1417 -2
c-3 -3 -12 -4 -19 -1 -8 3 -5 6 6 6 11 1 17 -2 13 -5z m-2153 -19 c3 -8 1 -15
-4 -15 -6 0 -10 7 -10 15 0 8 2 15 4 15 2 0 6 -7 10 -15z m1350 -6 c-3 -5 -10
-7 -15 -3 -5 3 -7 10 -3 15 3 5 10 7 15 3 5 -3 7 -10 3 -15z m-2541 4 c-13 -2
-33 -2 -45 0 -13 2 -3 4 22 4 25 0 35 -2 23 -4z m465 -13 c-7 -11 -15 -15 -17
-9 -2 6 3 15 10 20 20 12 21 11 7 -11z m796 8 c-3 -4 -17 -8 -32 -8 -17 0 -22
3 -15 8 16 10 53 10 47 0z m31 3 c3 -5 1 -12 -5 -16 -5 -3 -10 1 -10 9 0 18 6
21 15 7z m1315 5 c0 -3 -4 -8 -10 -11 -5 -3 -10 -1 -10 4 0 6 5 11 10 11 6 0
10 -2 10 -4z m751 -15 c-11 -7 -10 -10 5 -14 16 -4 16 -5 -3 -6 -14 -1 -23 5
-23 14 0 8 8 15 18 15 14 0 14 -2 3 -9z m50 -9 c-7 -2 -18 1 -23 6 -8 8 -4 9
13 5 13 -4 18 -8 10 -11z m-3446 -2 c3 -5 1 -10 -4 -10 -6 0 -11 5 -11 10 0 6
2 10 4 10 3 0 8 -4 11 -10z m90 0 c3 -5 1 -10 -4 -10 -6 0 -11 5 -11 10 0 6 2
10 4 10 3 0 8 -4 11 -10z m2105 -10 c0 -5 -4 -10 -10 -10 -5 0 -10 5 -10 10 0
6 5 10 10 10 6 0 10 -4 10 -10z m1133 -10 c-5 -20 -33 -29 -33 -10 0 7 25 27
37 30 0 0 -1 -9 -4 -20z m-68 0 c-4 -6 -11 -8 -16 -4 -5 3 -16 0 -24 -6 -8 -6
-20 -8 -27 -4 -9 6 -5 10 12 15 38 11 62 10 55 -1z m705 0 c0 -5 -7 -7 -15 -4
-8 4 -15 8 -15 10 0 2 7 4 15 4 8 0 15 -4 15 -10z m123 3 c-7 -2 -19 -2 -25 0
-7 3 -2 5 12 5 14 0 19 -2 13 -5z m-671 -15 c-9 -9 -15 -9 -24 0 -9 9 -7 12
12 12 19 0 21 -3 12 -12z m208 2 c0 -5 -4 -10 -10 -10 -5 0 -10 5 -10 10 0 6
5 10 10 10 6 0 10 -4 10 -10z m-635 -10 c-3 -5 -12 -10 -18 -10 -7 0 -6 4 3
10 19 12 23 12 15 0z m35 0 c0 -5 -2 -10 -4 -10 -3 0 -8 5 -11 10 -3 6 -1 10
4 10 6 0 11 -4 11 -10z m151 -12 c6 -86 3 -113 -11 -113 -11 0 -15 12 -16 48
-1 26 3 47 8 47 5 0 6 9 3 20 -4 11 -2 20 4 20 6 0 12 -10 12 -22z m-2821 2
c0 -5 -4 -10 -10 -10 -5 0 -10 5 -10 10 0 6 5 10 10 10 6 0 10 -4 10 -10z
m1595 0 c3 -5 -1 -10 -10 -10 -9 0 -13 5 -10 10 3 6 8 10 10 10 2 0 7 -4 10
-10z m-591 -15 c-7 -16 -24 -21 -24 -6 0 8 7 13 27 20 1 1 0 -6 -3 -14z m-820
-6 c-3 -5 -11 -9 -19 -9 -8 0 -16 4 -19 9 -3 5 5 9 19 9 14 0 22 -4 19 -9z
m1776 -29 c0 -12 -29 -20 -35 -10 -4 6 -1 10 5 10 6 0 8 4 5 10 -3 6 1 7 9 4
9 -3 16 -10 16 -14z m297 -17 c-3 -10 -5 -4 -5 12 0 17 2 24 5 18 2 -7 2 -21
0 -30z m1263 27 c0 -5 -5 -10 -11 -10 -5 0 -7 5 -4 10 3 6 8 10 11 10 2 0 4
-4 4 -10z m-380 -22 c0 -5 6 -6 13 -2 7 4 7 2 -2 -7 -10 -11 -15 -11 -18 -1
-3 6 -8 10 -13 7 -4 -3 -13 1 -19 9 -9 11 -6 12 14 8 14 -2 25 -9 25 -14z m50
8 c-7 -7 -13 -7 -20 0 -6 6 -3 10 10 10 13 0 16 -4 10 -10z m-1055 -6 c3 -5 1
-10 -4 -10 -6 0 -11 5 -11 10 0 6 2 10 4 10 3 0 8 -4 11 -10z m1340 1 c3 -5 2
-12 -3 -15 -5 -3 -9 1 -9 9 0 17 3 19 12 6z m-1297 -25 c-7 -8 -15 -12 -17
-11 -5 6 10 25 20 25 5 0 4 -6 -3 -14z m712 4 c0 -5 -2 -10 -4 -10 -3 0 -8 5
-11 10 -3 6 -1 10 4 10 6 0 11 -4 11 -10z m-550 -25 c0 -8 -2 -15 -4 -15 -2 0
-6 7 -10 15 -3 8 -1 15 4 15 6 0 10 -7 10 -15z m1020 -9 c0 -3 -4 -8 -10 -11
-5 -3 -10 -1 -10 4 0 6 5 11 10 11 6 0 10 -2 10 -4z m-110 -16 c0 -5 -2 -10
-4 -10 -3 0 -8 5 -11 10 -3 6 -1 10 4 10 6 0 11 -4 11 -10z m60 0 c0 -5 -4
-10 -10 -10 -5 0 -10 5 -10 10 0 6 5 10 10 10 6 0 10 -4 10 -10z m137 -39 c21
2 46 -2 56 -7 12 -7 -1 -10 -53 -11 -64 -2 -70 0 -70 19 0 17 3 18 14 8 8 -6
32 -10 53 -9z m-3217 -21 c4 0 10 -9 13 -21 3 -13 10 -18 17 -14 8 5 11 1 8
-10 -1 -10 -13 -21 -25 -26 -21 -7 -23 -5 -23 21 0 17 -3 30 -7 30 -14 0 -53
-44 -53 -59 0 -9 -5 -23 -11 -31 -8 -11 -9 -8 -5 15 5 22 4 26 -4 15 -5 -8
-10 -25 -10 -37 0 -13 -4 -23 -10 -23 -14 0 -13 53 2 85 10 23 30 34 86 44 4
1 0 6 -8 12 -12 9 -12 10 3 5 10 -3 22 -6 27 -6z m3340 -10 c0 -5 -2 -10 -4
-10 -3 0 -8 5 -11 10 -3 6 -1 10 4 10 6 0 11 -4 11 -10z m-1992 -35 c-11 -11
-68 -17 -68 -7 0 6 15 12 33 14 33 3 44 1 35 -7z m1092 11 c0 -3 -4 -8 -10
-11 -5 -3 -10 -1 -10 4 0 6 5 11 10 11 6 0 10 -2 10 -4z m-2585 -16 c3 -6 -1
-7 -9 -4 -18 7 -21 14 -7 14 6 0 13 -4 16 -10z m315 -6 c0 -2 -16 -4 -36 -4
-19 0 -33 4 -30 8 5 8 66 4 66 -4z m1680 6 c0 -5 -8 -10 -17 -10 -15 0 -16 2
-3 10 19 12 20 12 20 0z m1227 4 c-3 -3 -12 -4 -19 -1 -8 3 -5 6 6 6 11 1 17
-2 13 -5z m-987 -8 c0 -2 -7 -7 -16 -10 -8 -3 -12 -2 -9 4 6 10 25 14 25 6z
m430 -6 c0 -5 -9 -10 -19 -10 -11 0 -23 5 -26 10 -4 6 5 10 19 10 14 0 26 -4
26 -10z m-1210 -30 c0 -5 -2 -10 -4 -10 -3 0 -8 5 -11 10 -3 6 -1 10 4 10 6 0
11 -4 11 -10z m30 0 c0 -5 -5 -10 -11 -10 -5 0 -7 5 -4 10 3 6 8 10 11 10 2 0
4 -4 4 -10z m577 -18 c-2 -29 -23 -44 -37 -27 -10 12 -9 15 3 15 8 0 17 7 21
15 8 21 15 19 13 -3z m692 2 c-31 -17 -39 -17 -39 0 0 10 10 14 31 14 31 -1
31 -1 8 -14z m471 -14 c0 -5 -7 -10 -16 -10 -8 0 -12 5 -9 10 3 6 10 10 16 10
5 0 9 -4 9 -10z m168 -8 c2 -7 -7 -12 -22 -12 -27 0 -44 16 -24 23 20 7 42 1
46 -11z m-3128 -2 c0 -5 -11 -10 -25 -10 -14 0 -25 5 -25 10 0 6 11 10 25 10
14 0 25 -4 25 -10z m1840 6 c0 -3 -4 -8 -10 -11 -5 -3 -10 -1 -10 4 0 6 5 11
10 11 6 0 10 -2 10 -4z m1393 -3 c-7 -2 -19 -2 -25 0 -7 3 -2 5 12 5 14 0 19
-2 13 -5z m-813 -27 c0 -7 -17 -12 -40 -13 -22 -1 -46 -6 -53 -10 -16 -10 -57
-11 -57 -1 0 4 6 8 14 8 8 0 22 7 31 16 9 9 18 14 21 11 3 -3 17 -2 32 2 31 9
52 4 52 -13z m67 9 c0 -8 -4 -12 -9 -9 -5 3 -6 10 -3 15 9 13 12 11 12 -6z
m-2470 -27 c-3 -8 -6 -5 -6 6 -1 11 2 17 5 13 3 -3 4 -12 1 -19z m2594 13 c-7
-5 -10 -14 -7 -20 4 -6 3 -11 -1 -11 -5 0 -14 9 -21 20 -11 18 -10 20 15 20
20 0 24 -3 14 -9z m46 3 c-3 -3 -12 -4 -19 -1 -8 3 -5 6 6 6 11 1 17 -2 13 -5z
m101 -6 c-5 -13 -48 -22 -48 -9 0 10 17 19 38 20 8 1 12 -4 10 -11z m-3158 -8
c0 -5 -5 -10 -11 -10 -5 0 -7 5 -4 10 3 6 8 10 11 10 2 0 4 -4 4 -10z m2340
-9 c0 -4 -13 -7 -30 -5 -16 2 -30 0 -30 -4 0 -5 -15 -6 -32 -3 l-33 5 35 7
c53 10 90 10 90 0z m634 0 c3 -5 -5 -8 -19 -7 -14 0 -25 4 -25 9 0 10 38 9 44
-2z m-2128 -10 c-4 -5 3 -7 13 -4 18 4 19 2 10 -36 -5 -23 -11 -56 -13 -75 -3
-18 -14 -54 -26 -78 -29 -63 -34 -85 -33 -158 0 -36 -2 -54 -4 -40 -3 14 -9
30 -15 35 -8 7 -9 6 -4 -2 4 -7 0 -23 -9 -35 l-17 -23 6 30 c4 17 10 100 13
185 l6 155 29 27 c29 27 56 38 44 19z m69 -105 c-10 -39 -22 -78 -27 -86 -11
-17 -9 -6 13 73 11 40 11 51 0 70 -13 20 -13 21 2 8 15 -12 17 -10 18 20 1 27
3 29 6 10 3 -14 -3 -56 -12 -95z m2605 110 c0 -3 -4 -8 -10 -11 -5 -3 -10 -1
-10 4 0 6 5 11 10 11 6 0 10 -2 10 -4z m-3665 -16 c3 -5 1 -10 -4 -10 -6 0
-11 5 -11 10 0 6 2 10 4 10 3 0 8 -4 11 -10z m860 -18 c-8 -2 -23 -2 -32 1
-15 3 -13 6 7 14 18 8 27 7 32 -1 4 -6 1 -12 -7 -14z m2075 -2 c0 -5 -10 -10
-22 -9 -22 0 -22 1 -3 9 11 5 21 9 23 9 1 1 2 -3 2 -9z m-2284 -27 c-10 -10
-19 5 -10 18 6 11 8 11 12 0 2 -7 1 -15 -2 -18z m2224 17 c0 -5 -7 -10 -16
-10 -8 0 -12 5 -9 10 3 6 10 10 16 10 5 0 9 -4 9 -10z m907 -5 c0 -8 -6 -15
-14 -15 -14 0 -17 12 -6 23 11 11 20 8 20 -8z m-1447 -10 c0 -8 -4 -15 -10
-15 -5 0 -7 7 -4 15 4 8 8 15 10 15 2 0 4 -7 4 -15z m217 1 c-2 -6 -11 -11
-20 -11 -8 0 -19 -4 -24 -9 -4 -5 -3 -6 5 -2 6 4 12 3 12 -2 0 -6 -7 -12 -15
-16 -10 -3 -15 1 -15 12 0 13 -2 14 -9 3 -5 -8 -14 -10 -21 -6 -10 6 -8 12 6
22 18 13 17 14 -7 8 -16 -4 -30 -2 -34 4 -4 8 14 11 60 10 44 -1 65 -5 62 -13z
m983 -5 c0 -4 -6 -8 -14 -8 -8 0 -12 6 -9 14 5 13 23 9 23 -6z m380 9 c0 -5
-8 -10 -17 -10 -15 0 -16 2 -3 10 19 12 20 12 20 0z m-3418 -12 c-9 -9 -15 -9
-24 0 -9 9 -7 12 12 12 19 0 21 -3 12 -12z m115 -1 c4 -6 0 -8 -10 -4 -9 3
-19 2 -22 -4 -7 -10 -25 -3 -25 10 0 12 49 10 57 -2z m3093 4 c0 -17 -15 -19
-35 -5 -18 13 -18 14 8 14 15 0 27 -4 27 -9z m40 -7 c0 -2 -7 -4 -15 -4 -8 0
-15 4 -15 10 0 5 7 7 15 4 8 -4 15 -8 15 -10z m-3276 -24 c-10 -4 -23 -5 -28
-2 -5 3 -1 9 10 12 10 4 23 5 28 2 5 -3 1 -9 -10 -12z m2993 -2 c2 6 9 10 14
6 18 -10 9 -24 -16 -24 -17 0 -25 5 -25 18 0 15 2 15 11 2 8 -11 12 -12 16 -2z
m-1704 -5 c-7 -2 -19 -2 -25 0 -7 3 -2 5 12 5 14 0 19 -2 13 -5z m57 -3 c0 -5
-4 -10 -10 -10 -5 0 -10 5 -10 10 0 6 5 10 10 10 6 0 10 -4 10 -10z m60 1 c0
-4 -11 -6 -25 -3 -14 2 -25 6 -25 8 0 2 11 4 25 4 14 0 25 -4 25 -9z m-310
-11 c0 -5 -8 -10 -17 -10 -15 0 -16 2 -3 10 19 12 20 12 20 0z m1454 2 c2 -4
-4 -13 -15 -20 -10 -7 -19 -10 -19 -8 0 2 -3 11 -6 20 -4 11 0 16 14 16 12 0
23 -4 26 -8z m186 -2 c0 -5 -4 -10 -9 -10 -6 0 -13 5 -16 10 -3 6 1 10 9 10 9
0 16 -4 16 -10z m-3160 -10 c0 -5 -4 -10 -10 -10 -5 0 -10 5 -10 10 0 6 5 10
10 10 6 0 10 -4 10 -10z m3566 -48 c-4 -3 -12 0 -19 7 -9 9 -9 14 3 21 11 7
16 5 18 -6 2 -9 1 -18 -2 -22z m261 32 c-3 -3 -12 -4 -19 -1 -8 3 -5 6 6 6 11
1 17 -2 13 -5z m-3570 -27 c-1 -5 -17 -11 -35 -12 -32 -3 -32 -3 -11 16 21 18
53 16 46 -4z m33 3 c9 -16 8 -20 -5 -20 -8 0 -15 9 -15 20 0 11 2 20 5 20 2 0
9 -9 15 -20z m3160 14 c0 -3 -6 -12 -14 -20 -11 -10 -17 -11 -22 -3 -3 6 0 15
7 20 16 10 29 12 29 3z m-1100 -14 c0 -5 18 -10 40 -10 25 0 40 5 40 13 0 8 4
7 10 -3 8 -11 12 -12 18 -3 10 16 52 5 52 -14 0 -12 -3 -13 -15 -3 -8 6 -19 9
-24 6 -6 -4 -32 -7 -58 -8 -26 0 -51 -6 -55 -12 -5 -8 -8 -7 -8 2 0 7 -15 19
-32 27 l-33 14 33 1 c17 0 32 -4 32 -10z m750 -25 c0 -24 -5 -35 -14 -35 -15
0 -16 35 -2 58 12 20 16 14 16 -23z m-2680 -2 c0 -10 -6 -13 -16 -9 -9 3 -23
6 -32 6 -12 0 -9 4 8 14 28 15 40 12 40 -11z m1653 11 c-6 -17 -37 -23 -57
-12 -24 14 -12 24 27 24 23 0 33 -4 30 -12z m1224 -10 c-3 -3 -12 -4 -19 -1
-8 3 -5 6 6 6 11 1 17 -2 13 -5z m-2267 -14 c0 -5 -2 -10 -4 -10 -3 0 -8 5
-11 10 -3 6 -1 10 4 10 6 0 11 -4 11 -10z m666 -5 c4 -10 14 -13 30 -9 21 5
23 3 17 -12 -6 -17 -5 -18 12 -4 15 12 17 12 14 1 -3 -8 -16 -21 -29 -30 -13
-9 -21 -11 -17 -5 8 13 -33 44 -58 44 -18 0 -20 16 -2 23 21 9 27 7 33 -8z
m301 9 c-3 -3 -12 -4 -19 -1 -8 3 -5 6 6 6 11 1 17 -2 13 -5z m1216 -4 c22 0
28 -4 25 -17 -2 -14 -12 -17 -44 -15 -66 5 -78 8 -82 21 -3 10 0 10 18 1 25
-13 42 -4 20 11 -12 8 -9 9 10 5 14 -3 38 -6 53 -6z m-1253 -18 c0 -7 4 -11 9
-7 5 3 13 0 17 -6 4 -7 3 -9 -4 -5 -6 3 -15 -2 -21 -11 -6 -11 -11 -13 -11 -5
0 7 -4 11 -9 8 -5 -4 -20 -2 -33 3 -21 9 -20 10 12 11 32 1 34 2 16 15 -18 13
-18 14 3 12 11 -1 21 -7 21 -15z m-983 -14 c-3 -8 -6 -5 -6 6 -1 11 2 17 5 13
3 -3 4 -12 1 -19z m1353 12 c0 -5 -4 -10 -10 -10 -5 0 -10 5 -10 10 0 6 5 10
10 10 6 0 10 -4 10 -10z m-817 -20 c5 -4 -16 -8 -47 -9 -32 0 -56 4 -56 10 0
6 4 8 9 4 5 -3 12 -1 16 5 6 10 64 3 78 -10z m337 14 c0 -8 -27 -34 -35 -34
-4 0 -5 6 -2 14 4 10 -2 16 -16 19 -13 3 -7 5 16 6 20 0 37 -2 37 -5z m1090
-4 c0 -5 -2 -10 -4 -10 -3 0 -8 5 -11 10 -3 6 -1 10 4 10 6 0 11 -4 11 -10z
m367 -5 c-2 -5 -10 -10 -17 -10 -7 0 -15 5 -17 10 -2 6 6 11 17 11 11 0 19 -5
17 -11z m-1665 -12 c17 -15 18 -15 18 1 0 23 22 15 26 -8 2 -17 -3 -18 -47
-13 -61 7 -80 18 -53 28 29 11 36 10 56 -8z m1768 7 c0 -5 -5 -10 -11 -10 -5
0 -7 5 -4 10 3 6 8 10 11 10 2 0 4 -4 4 -10z m-1620 -10 c0 -5 -5 -10 -11 -10
-5 0 -7 5 -4 10 3 6 8 10 11 10 2 0 4 -4 4 -10z m1150 -12 c0 -6 -6 -5 -15 2
-8 7 -15 14 -15 16 0 2 7 1 15 -2 8 -4 15 -11 15 -16z m140 12 c0 -5 -4 -10
-10 -10 -5 0 -10 5 -10 10 0 6 5 10 10 10 6 0 10 -4 10 -10z m-668 -38 c7 -7
0 -8 -27 -2 -47 11 -58 21 -16 17 17 -2 37 -9 43 -15z m-215 -18 c-3 -3 -12
-4 -19 -1 -8 3 -5 6 6 6 11 1 17 -2 13 -5z m338 -3 c3 -5 1 -12 -4 -15 -5 -3
-11 1 -15 9 -6 16 9 21 19 6z m375 0 c0 -5 -10 -11 -22 -14 -22 -6 -22 -6 -4
8 23 17 26 18 26 6z m58 -3 c-3 -14 -18 -28 -31 -28 -5 0 -5 5 -2 10 3 6 0 10
-7 11 -7 1 -2 5 12 9 14 4 26 8 28 9 1 1 1 -5 0 -11z m-353 -26 c-2 -3 -16 -1
-32 2 -20 6 -23 10 -13 16 12 8 54 -9 45 -18z m35 8 c-8 -5 -10 -10 -5 -10 14
0 -17 -20 -32 -20 -19 0 18 38 37 39 13 1 13 0 0 -9z m48 -1 c-2 -6 -8 -10
-13 -10 -5 0 -11 4 -13 10 -2 6 4 11 13 11 9 0 15 -5 13 -11z m33 -4 c5 3 18
1 29 -5 16 -9 20 -8 20 5 0 12 4 13 18 7 9 -5 25 -8 35 -6 11 1 16 0 13 -3 -3
-3 -1 -15 5 -27 9 -19 9 -20 -4 -3 -12 15 -16 15 -20 3 -3 -8 1 -17 9 -20 9
-3 12 -10 9 -16 -3 -5 1 -10 9 -10 15 0 20 11 17 35 -1 6 8 -1 19 -14 17 -20
24 -22 43 -13 19 9 20 11 3 11 -15 1 -16 4 -6 16 7 8 16 12 21 10 4 -3 12 3
18 12 8 14 12 16 22 6 7 -7 10 -14 6 -14 -4 -1 -10 -2 -14 -3 -19 -3 -32 -18
-27 -30 5 -13 31 -15 52 -2 6 4 17 4 22 1 6 -3 10 -2 10 4 0 5 -3 11 -7 14 -5
2 -3 3 3 1 6 -1 16 2 22 8 6 6 12 6 16 -1 4 -6 0 -11 -8 -11 -9 0 -13 -6 -10
-14 5 -12 12 -11 41 5 30 17 35 18 29 4 -3 -9 -6 -23 -6 -31 0 -8 -5 -14 -11
-14 -5 0 -8 4 -4 9 3 5 1 12 -5 16 -5 3 -10 -1 -10 -10 0 -12 -4 -13 -18 -6
-22 12 -54 10 -64 -4 -5 -6 -12 -4 -18 5 -9 13 -13 11 -30 -10 -11 -14 -20
-21 -20 -16 0 5 -6 3 -14 -3 -10 -9 -15 -8 -20 4 -3 8 -10 15 -17 15 -6 0 -8
-7 -4 -17 5 -14 3 -15 -6 -6 -16 16 -1 35 24 28 20 -5 20 -5 4 5 -13 8 -22 9
-31 1 -7 -6 -16 -8 -20 -4 -4 4 -4 -1 -1 -12 7 -20 6 -20 -9 -1 -16 20 -16 20
-17 0 -1 -10 -1 -25 0 -31 1 -7 -3 -13 -9 -13 -5 0 -9 3 -9 8 4 25 -2 52 -11
47 -6 -4 -7 -12 -3 -18 4 -7 -1 -5 -12 3 -22 18 -18 18 -39 1 -14 -12 -16 -12
-10 3 3 9 2 16 -3 16 -5 0 -10 7 -10 15 0 8 4 15 9 15 4 0 8 -7 8 -15 0 -8 7
-15 16 -15 14 0 14 3 4 15 -7 8 -10 15 -6 15 16 0 21 -3 19 -11 -2 -5 0 -9 5
-10 4 0 15 -2 24 -4 24 -4 44 21 23 29 -9 3 -14 9 -11 14 2 4 1 14 -3 21 -6
10 -12 9 -25 -4 -9 -9 -16 -11 -16 -5 0 6 -4 8 -10 5 -5 -3 -10 -1 -10 5 0 6
-10 8 -25 4 -21 -5 -24 -3 -18 12 4 11 8 13 11 6 2 -7 8 -10 13 -7z m-170 -28
c-10 -9 -11 -8 -5 6 3 10 9 15 12 12 3 -3 0 -11 -7 -18z m-467 -3 c3 -8 2 -12
-4 -9 -6 3 -10 10 -10 16 0 14 7 11 14 -7z m551 -4 c-3 -5 -12 -10 -18 -10 -7
0 -6 4 3 10 19 12 23 12 15 0z m70 -11 c-4 -5 -12 -9 -18 -8 -9 0 -8 2 1 6 6
2 9 10 6 15 -4 7 -2 8 5 4 6 -4 9 -12 6 -17z m88 1 c3 -11 1 -20 -4 -20 -5 0
-9 9 -9 20 0 11 2 20 4 20 2 0 6 -9 9 -20z m-597 -16 c-4 -9 -9 -15 -11 -12
-3 3 -3 13 1 22 4 9 9 15 11 12 3 -3 3 -13 -1 -22z m301 11 c4 -4 3 -5 -4 -2
-6 4 -21 -5 -32 -19 -12 -15 -21 -23 -21 -18 0 5 -7 1 -14 -8 -12 -17 -14 -17
-30 0 -13 16 -14 19 -1 19 8 0 12 -4 9 -9 -9 -14 7 -9 37 13 16 11 27 24 24
29 -7 11 22 7 32 -5z m665 -8 c-12 -6 -22 -14 -22 -19 0 -5 4 -7 9 -3 5 3 13
1 16 -5 5 -8 11 -7 21 1 8 6 14 8 14 4 0 -4 7 -2 15 5 9 7 14 18 11 25 -4 13
22 14 41 2 7 -5 22 -3 33 3 15 8 20 8 18 -1 -2 -6 3 -14 11 -17 9 -3 11 0 6 8
-5 8 -4 11 2 7 13 -8 11 -58 -2 -55 -6 1 -9 9 -7 16 2 8 -1 11 -8 7 -6 -4 -17
-1 -25 5 -10 8 -15 9 -15 2 0 -6 8 -15 18 -21 14 -8 15 -12 3 -23 -10 -9 -12
-10 -7 0 4 7 1 12 -8 13 -9 1 -20 3 -26 4 -5 1 -15 3 -21 4 -5 0 -7 6 -3 13 4
7 3 8 -5 4 -6 -4 -9 -11 -6 -16 3 -5 1 -11 -5 -15 -5 -3 -10 -2 -10 3 0 5 -19
8 -42 8 -30 -1 -42 -5 -40 -14 1 -8 -2 -11 -8 -7 -7 4 -7 12 0 24 5 10 7 21 3
24 -12 13 18 35 39 29 l22 -5 -22 -10z m48 1 c0 -12 -3 -18 -7 -15 -3 4 -12 2
-20 -4 -19 -16 -16 -3 4 21 22 25 23 25 23 -2z m-950 2 c0 -5 -5 -10 -11 -10
-5 0 -7 5 -4 10 3 6 8 10 11 10 2 0 4 -4 4 -10z m118 -7 c-5 -7 -8 -20 -4 -28
3 -8 1 -15 -4 -15 -6 0 -10 6 -10 14 0 8 -5 16 -12 18 -18 6 0 27 22 25 14 -1
16 -4 8 -14z m1188 5 c4 -6 2 -8 -4 -4 -5 3 -12 1 -14 -5 -2 -7 -8 -7 -15 3
-10 11 -8 14 7 15 11 1 23 -3 26 -9z m-1012 -19 c-3 -5 -9 -7 -13 -5 -4 3 -13
1 -21 -5 -11 -6 -12 -9 -2 -9 7 0 10 -5 6 -11 -4 -8 -9 -7 -15 2 -6 10 -1 20
13 31 23 17 43 15 32 -3z m907 -9 c10 0 19 6 19 13 0 8 4 7 10 -3 6 -10 10
-11 10 -2 0 6 5 12 11 12 5 0 8 -4 5 -9 -3 -5 3 -11 14 -14 11 -3 23 -1 26 4
3 5 11 9 17 9 7 0 -10 -21 -36 -45 -50 -47 -57 -51 -57 -35 0 6 6 10 14 10 8
0 18 9 21 20 4 12 11 17 18 14 7 -4 8 -3 4 1 -4 5 -22 10 -39 11 -23 2 -28 0
-19 -9 6 -6 11 -16 11 -22 0 -5 -5 -3 -10 5 -9 13 -11 13 -20 0 -6 -10 -10
-11 -10 -3 0 15 -21 13 -33 -2 -5 -6 -7 -3 -3 7 6 19 -20 38 -42 31 -8 -3 -10
1 -6 11 7 19 30 21 37 4 3 -8 6 -5 6 5 1 17 2 17 17 3 8 -9 24 -16 35 -16z m0
12 c-7 -2 -18 1 -23 6 -8 8 -4 9 13 5 13 -4 18 -8 10 -11z m311 3 c0 -5 -5
-10 -12 -11 -7 -2 -6 -1 1 3 8 4 7 8 -2 15 -11 8 -11 9 -1 6 8 -2 14 -8 14
-13z m-2812 -66 c0 -5 -15 -9 -32 -9 -30 1 -31 2 -15 14 9 7 17 26 17 42 l1
29 14 -34 c8 -18 15 -37 15 -42z m1530 61 c0 -5 -5 -10 -11 -10 -5 0 -7 5 -4
10 3 6 8 10 11 10 2 0 4 -4 4 -10z m85 -10 c-10 -11 -22 -20 -27 -20 -10 0 24
38 36 39 5 1 1 -8 -9 -19z m44 -25 c0 -5 -4 -3 -9 5 -5 8 -9 22 -9 30 0 16 17
-16 18 -35z m21 41 c0 -3 -4 -8 -10 -11 -5 -3 -10 -1 -10 4 0 6 5 11 10 11 6
0 10 -2 10 -4z m66 -16 c0 -11 -6 -20 -14 -20 -7 0 -10 5 -6 11 3 6 -5 4 -19
-6 -17 -11 -27 -13 -32 -5 -3 6 -1 9 7 8 7 -2 12 3 10 10 -1 8 1 11 6 8 4 -2
14 -1 22 5 22 13 26 11 26 -11z m-666 4 c0 -1 -8 -8 -17 -15 -11 -10 -14 -10
-9 -1 9 15 -6 16 -20 2 -7 -7 -11 -6 -11 3 0 8 12 13 29 13 15 0 28 -1 28 -2z
m260 -10 c0 -7 6 -14 13 -17 6 -3 2 -4 -10 -4 -12 1 -21 6 -20 12 1 5 -10 9
-26 8 -15 -1 -25 2 -22 8 9 13 65 7 65 -7z m-196 -2 c3 -5 -1 -9 -9 -9 -8 0
-12 4 -9 9 3 4 7 8 9 8 2 0 6 -4 9 -8z m243 -7 c0 -8 -4 -12 -9 -9 -5 3 -6 10
-3 15 9 13 12 11 12 -6z m691 -10 c-1 -14 -6 -25 -11 -25 -5 0 -6 7 -3 16 3 9
6 20 6 25 0 5 2 9 5 9 3 0 4 -11 3 -25z m-768 5 c0 -5 -5 -10 -11 -10 -5 0 -7
5 -4 10 3 6 8 10 11 10 2 0 4 -4 4 -10z m230 -6 c0 -2 -9 -4 -20 -4 -11 0 -20
4 -20 9 0 5 9 7 20 4 11 -3 20 -7 20 -9z m499 3 c7 8 16 11 19 8 12 -12 -30
-36 -43 -25 -7 5 -15 7 -19 3 -4 -4 -4 1 0 11 6 16 9 17 18 4 10 -13 13 -13
25 -1z m594 -6 c3 -14 1 -18 -9 -14 -8 3 -14 11 -14 19 0 21 17 17 23 -5z
m-1418 -1 c3 -6 -1 -7 -9 -4 -18 7 -21 14 -7 14 6 0 13 -4 16 -10z m919 -4
c-3 -8 -13 -12 -27 -8 -20 5 -20 6 -1 13 29 11 34 10 28 -5z m301 -3 c5 -14 4
-15 -6 -6 -10 10 -16 10 -28 0 -14 -11 -14 -10 -2 6 7 9 17 17 21 17 4 0 11
-8 15 -17z m-2095 -8 c11 -13 7 -15 -24 -15 -35 0 -49 13 -23 23 22 9 34 7 47
-8z m124 -4 c-5 -5 -25 -12 -44 -15 l-35 -7 40 19 c39 19 58 20 39 3z m-239
-21 c3 -5 25 -11 48 -11 40 -1 40 -2 -14 -10 -30 -4 -78 -4 -105 0 -43 8 -45
9 -14 10 19 1 42 6 50 11 19 12 27 12 35 0z m2095 6 c0 -2 -8 -10 -17 -17 -16
-13 -17 -12 -4 4 13 16 21 21 21 13z m565 -6 c3 -5 1 -10 -4 -10 -6 0 -11 5
-11 10 0 6 2 10 4 10 3 0 8 -4 11 -10z m-35 -14 c0 -3 -4 -8 -10 -11 -5 -3
-10 -1 -10 4 0 6 5 11 10 11 6 0 10 -2 10 -4z m-2805 -28 c11 -14 20 -18 22
-11 5 14 33 6 33 -9 0 -11 -83 -1 -122 15 -39 16 -35 27 10 27 26 0 43 -7 57
-22z m2705 17 c0 -7 -39 -12 -49 -5 -7 4 1 7 18 8 17 0 31 -1 31 -3z m-455
-15 c3 -6 -1 -7 -9 -4 -18 7 -21 14 -7 14 6 0 13 -4 16 -10z m580 -60 c-3 -5
-12 -10 -18 -10 -7 0 -6 4 3 10 19 12 23 12 15 0z"/>
<path d="M2351 2228 c1 -7 5 -24 9 -38 8 -24 8 -24 9 7 1 17 -3 35 -9 38 -5 3
-10 0 -9 -7z"/>
<path d="M2296 2193 c-6 -14 -5 -15 5 -6 7 7 10 15 7 18 -3 3 -9 -2 -12 -12z"/>
<path d="M2380 2190 c0 -5 5 -10 11 -10 5 0 7 5 4 10 -3 6 -8 10 -11 10 -2 0
-4 -4 -4 -10z"/>
<path d="M2222 2163 c3 -12 1 -24 -6 -26 -7 -3 -5 -11 6 -23 17 -17 17 -16 13
21 -3 21 -8 41 -12 44 -3 3 -4 -4 -1 -16z"/>
<path d="M1838 2120 c-15 -34 -35 -45 -54 -29 -16 13 -61 8 -54 -6 3 -5 9 -9
14 -7 4 1 19 -5 33 -13 21 -14 24 -22 19 -49 -7 -39 17 -138 46 -184 13 -22
21 -51 21 -79 0 -24 3 -39 7 -33 8 12 18 2 38 -40 15 -30 -2 -96 -17 -71 -7
10 -10 10 -16 1 -4 -7 -1 -16 6 -21 17 -11 39 -12 38 -1 -4 24 3 52 12 52 7 0
8 -13 4 -38 -5 -32 -3 -39 11 -39 9 0 19 9 22 19 2 10 13 18 23 18 25 0 24 8
-6 32 -34 27 -32 44 3 19 15 -11 45 -23 67 -26 l40 -7 -48 25 c-50 25 -122
110 -110 130 3 6 2 7 -4 4 -6 -4 -23 37 -42 96 -18 56 -39 111 -47 121 -8 11
-14 31 -14 46 0 32 28 73 45 66 17 -6 27 18 12 33 -19 19 -35 12 -49 -19z
m119 -532 c-3 -8 -6 -5 -6 6 -1 11 2 17 5 13 3 -3 4 -12 1 -19z"/>
<path d="M2255 2120 c3 -5 8 -10 11 -10 2 0 4 5 4 10 0 6 -5 10 -11 10 -5 0
-7 -4 -4 -10z"/>
<path d="M1566 1985 c-3 -9 -6 -22 -5 -28 0 -7 5 -1 10 12 5 13 8 26 5 28 -2
2 -6 -3 -10 -12z"/>
<path d="M1540 1951 c0 -11 4 -22 9 -25 4 -3 6 6 3 19 -5 30 -12 33 -12 6z"/>
<path d="M1581 1925 c-1 -27 -9 -48 -24 -65 -22 -24 -42 -80 -28 -80 4 0 30
21 59 46 28 25 52 41 52 35 0 -6 -3 -11 -7 -11 -5 0 -30 -21 -57 -46 -46 -44
-49 -45 -80 -33 -37 15 -58 30 -51 37 2 3 13 -1 22 -9 16 -13 17 -12 4 4 -7 9
-19 17 -26 17 -8 0 -16 6 -18 13 -4 8 -6 6 -6 -4 -1 -23 44 -69 68 -69 10 0
21 -3 23 -8 4 -9 131 -100 151 -107 9 -4 18 8 27 35 11 34 11 50 1 88 -7 26
-19 54 -27 63 -8 8 -14 21 -14 28 0 6 -9 21 -20 33 -11 12 -20 27 -20 32 0 6
5 4 10 -4 6 -9 10 -10 10 -3 0 21 -20 25 -27 6 -6 -15 -9 -13 -14 12 -6 28 -7
27 -8 -10z"/>
<path d="M891 1914 c0 -11 3 -14 6 -6 3 7 2 16 -1 19 -3 4 -6 -2 -5 -13z"/>
<path d="M1490 1875 c0 -5 5 -17 10 -25 5 -8 10 -10 10 -5 0 6 -5 17 -10 25
-5 8 -10 11 -10 5z"/>
<path d="M1218 1822 c-4 -15 -13 -18 -39 -15 -29 3 -31 2 -12 -6 16 -7 21 -16
17 -28 -4 -11 6 -5 25 15 31 32 39 52 22 52 -5 0 -11 -8 -13 -18z"/>
<path d="M1254 1766 l-10 -43 28 20 c33 24 34 29 10 50 -17 15 -18 14 -28 -27z"/>
<path d="M1433 1675 c0 -8 9 -15 19 -15 17 0 18 2 4 15 -8 8 -16 15 -19 15 -2
0 -4 -7 -4 -15z"/>
<path d="M1896 1655 c-9 -26 -7 -32 5 -12 6 10 9 21 6 23 -2 3 -7 -2 -11 -11z"/>
<path d="M1480 1655 c0 -7 30 -13 34 -7 3 4 -4 9 -15 9 -10 1 -19 0 -19 -2z"/>
<path d="M1779 1643 c-1 -4 -1 -17 0 -28 0 -11 -2 -14 -5 -7 -3 6 -10 12 -16
12 -5 0 -8 -6 -6 -12 3 -7 28 -15 56 -18 47 -5 52 -4 52 15 0 14 -3 16 -9 7
-6 -10 -10 -10 -21 3 -17 20 -50 38 -51 28z"/>
<path d="M966 1126 c4 -11 2 -22 -7 -28 -11 -8 -10 -9 4 -4 15 5 22 -5 18 -27
-1 -5 3 -6 8 -2 7 4 6 15 -1 33 -14 31 -33 56 -22 28z"/>
<path d="M1150 836 c0 -2 8 -10 18 -17 15 -13 16 -12 3 4 -13 16 -21 21 -21
13z"/>
<path d="M1339 2123 c-13 -16 -12 -17 4 -4 9 7 17 15 17 17 0 8 -8 3 -21 -13z"/>
<path d="M1314 2072 c2 -9 6 -16 10 -15 27 7 29 11 9 21 -18 10 -21 9 -19 -6z"/>
<path d="M1700 2275 c0 -8 4 -15 10 -15 5 0 7 7 4 15 -4 8 -8 15 -10 15 -2 0
-4 -7 -4 -15z"/>
<path d="M1780 2305 c0 -8 5 -15 10 -15 6 0 10 7 10 15 0 8 -4 15 -10 15 -5 0
-10 -7 -10 -15z"/>
<path d="M3225 280 c-3 -5 -1 -10 4 -10 6 0 11 5 11 10 0 6 -2 10 -4 10 -3 0
-8 -4 -11 -10z"/>
<path d="M3546 295 c4 -8 10 -12 15 -9 11 6 2 24 -11 24 -5 0 -7 -7 -4 -15z"/>
<path d="M3595 300 c3 -5 11 -10 16 -10 6 0 7 5 4 10 -3 6 -11 10 -16 10 -6 0
-7 -4 -4 -10z"/>
<path d="M3725 260 c3 -5 12 -7 20 -3 21 7 19 13 -6 13 -11 0 -18 -4 -14 -10z"/>
<path d="M3780 410 c-8 -5 -10 -10 -5 -10 6 0 3 -5 -5 -10 -13 -8 -13 -10 1
-10 9 0 19 9 22 20 3 11 4 20 4 20 -1 0 -9 -5 -17 -10z"/>
<path d="M3468 403 c7 -3 16 -2 19 1 4 3 -2 6 -13 5 -11 0 -14 -3 -6 -6z"/>
<path d="M3826 381 c-19 -7 -19 -8 2 -13 15 -4 22 -2 22 8 0 8 -1 14 -2 13 -2
0 -12 -4 -22 -8z"/>
<path d="M4095 382 c-56 -5 -64 -18 -10 -17 25 0 45 5 45 10 0 6 5 3 10 -5 6
-9 10 -10 10 -3 0 16 -9 19 -55 15z"/>
<path d="M4160 378 c0 -5 3 -8 8 -9 4 0 19 -2 35 -4 16 -2 27 1 27 8 0 7 -15
12 -35 12 -19 0 -35 -3 -35 -7z"/>
<path d="M3936 372 c-2 -4 12 -6 32 -4 62 6 69 10 20 11 -26 0 -49 -3 -52 -7z"/>
<path d="M4148 343 c6 -2 18 -2 25 0 6 3 1 5 -13 5 -14 0 -19 -2 -12 -5z"/>
<path d="M4130 280 c0 -5 9 -9 20 -7 31 5 36 17 7 17 -15 0 -27 -4 -27 -10z"/>
</g>
</svg>
